<svg width="158" height="34" viewBox="0 0 158 34" fill="none" xmlns="http://www.w3.org/2000/svg">
<path d="M51.9553 11.0087L48.1141 29.1709H43.5893L47.4306 11.0087H40.6523L41.5423 6.84473H59.4954L58.6054 11.0087H51.9553Z" fill="#414042"/>
<path d="M52.3691 29.1709L55.639 13.715H59.6387L59.2738 15.3409C60.5589 13.7937 62.1218 13.3 63.6543 13.3C64.4389 13.3038 65.2152 13.4611 65.9399 13.7633L64.6066 17.7663C63.9073 17.4342 63.1427 17.2643 62.3692 17.2691C60.4486 17.2691 58.7967 18.4478 58.2574 20.9377L56.5272 29.1655L52.3691 29.1709Z" fill="#414042"/>
<path d="M77.5439 15.2783L77.8999 13.715H82.0117L78.733 29.1709H74.7013L74.9718 27.8956C73.9555 28.9169 72.6578 29.5859 70.812 29.5859C67.0829 29.5859 64.3203 26.4754 64.3203 22.4723C64.3203 18.0686 67.5742 13.3 72.9088 13.3C75.0502 13.3 76.5916 14.0012 77.5439 15.2783ZM76.4314 21.4832C76.734 18.8986 75.2264 17.1761 73.0032 17.1761C70.4951 17.1761 68.6065 19.4101 68.6065 22.0413C68.6065 24.2735 70.0501 25.6937 72.0829 25.6937C74.372 25.6937 76.1306 23.8872 76.4314 21.4832Z" fill="#414042"/>
<path d="M97.94 18.4836C97.941 19.0471 97.8813 19.609 97.762 20.1596L95.8414 29.1709H91.6851L93.5434 20.4887C93.6196 20.1537 93.6566 19.811 93.6537 19.4674C93.6537 18.192 93.0183 17.2029 91.2401 17.2029C89.5259 17.2029 87.8581 18.1759 87.3045 20.8715L85.5583 29.1655H81.3984L84.6701 13.7096H88.6697L88.3137 15.2729C89.5989 13.7883 91.1617 13.2947 92.7637 13.2947C95.9873 13.3 97.94 15.4536 97.94 18.4836Z" fill="#414042"/>
<path d="M106.541 16.7773C105.017 16.7773 104.191 17.2245 104.081 18.0383C103.955 19.1115 104.843 19.3297 106.24 19.5855L107.271 19.7769C110.763 20.4137 112.128 22.1684 111.827 24.5616C111.447 27.656 108.939 29.5699 104.779 29.5699C102.335 29.5699 99.5561 28.8544 97.7637 27.4807L99.7466 24.44C101.16 25.413 102.951 26.1142 104.843 26.1142C106.669 26.1142 107.513 25.5883 107.621 24.6832C107.7 23.9016 107.087 23.4884 105.494 23.2165L104.426 23.0377C100.895 22.4724 99.5401 20.6373 99.8267 18.1492C100.208 15.0065 102.732 13.3198 106.541 13.3198C109.145 13.3198 111.347 13.9262 113.255 15.0262L111.366 18.1367C109.923 17.2406 107.796 16.7773 106.541 16.7773Z" fill="#414042"/>
<path d="M112.316 29.1709L117.174 6.20264H121.35L116.492 29.1709H112.316Z" fill="#414042"/>
<path d="M119.158 29.171L122.432 13.7152H126.606L123.336 29.171H119.158ZM128.222 8.65862C128.217 9.1824 128.057 9.69292 127.764 10.126C127.471 10.5591 127.057 10.8953 126.574 11.0925C126.091 11.2897 125.561 11.339 125.05 11.2343C124.539 11.1295 124.071 10.8753 123.703 10.5037C123.336 10.132 123.086 9.65957 122.985 9.14565C122.885 8.63174 122.937 8.09933 123.137 7.61539C123.336 7.13144 123.674 6.71756 124.106 6.4258C124.539 6.13403 125.049 5.97741 125.57 5.97562C125.92 5.97393 126.267 6.04231 126.591 6.17677C126.915 6.31123 127.208 6.50908 127.455 6.7588C127.702 7.00851 127.897 7.30509 128.029 7.63126C128.16 7.95743 128.226 8.30667 128.222 8.65862Z" fill="#414042"/>
<path d="M130.412 29.171L127.459 13.7151H131.713L133.507 24.9443L139.698 13.7151H144.207L135.19 29.171H130.412Z" fill="#414042"/>
<path d="M149.711 29.5859C145.083 29.5859 142.426 26.715 142.426 22.8068C142.426 18.8986 144.98 13.3 151.267 13.3C155.14 13.3 157.823 15.772 157.823 19.6015C157.807 20.7016 157.603 21.7907 157.219 22.8211H146.539C146.603 24.8781 147.889 26.0407 150.064 26.0407C151.454 26.0617 152.806 25.5806 153.873 24.6849L156.009 27.3965C154.33 28.8847 152.362 29.5859 149.711 29.5859ZM147.013 19.9843H153.823C153.836 19.9372 153.842 19.8883 153.839 19.8394V19.6963C153.839 17.8307 152.743 16.8881 151.029 16.8881C148.807 16.8881 147.6 18.4049 147.013 19.9843Z" fill="#414042"/>
<path d="M30.7882 19.2367C32.602 18.5212 34.261 17.77 35.7384 17.0044C34.261 16.2389 32.602 15.4894 30.7882 14.7704C33.2001 12.6401 34.3963 10.4776 33.9673 8.5351C33.6718 7.19002 32.6234 6.07926 30.984 5.22249C21.7921 0.160561 0.246982 0.729357 0.246982 0.729357C13.9726 1.74174 24.2343 6.8931 27.0342 13.3967C22.1572 11.7836 17.1702 10.5283 12.1125 9.6405C7.42216 8.79982 4.3748 8.27217 0.175781 8.0307C0.175781 8.0307 14.9943 12.5131 22.8263 16.9955C14.9943 21.4761 0.175781 25.9585 0.175781 25.9585C4.3748 25.7224 7.42216 25.1947 12.1125 24.3487C17.17 23.46 22.157 22.2047 27.0342 20.5925C24.2343 27.1068 13.9726 32.2582 0.246982 33.2724C0.246982 33.2724 21.785 33.8394 30.984 28.781C32.6234 27.9242 33.6718 26.8135 33.9673 25.4684C34.3963 23.5295 33.2001 21.3634 30.7882 19.2367Z" fill="#EF3B24"/>
</svg>
